<svg width="973" height="959" viewBox="0 0 973 959" fill="none" xmlns="http://www.w3.org/2000/svg">
<path d="M503.109 338.92C525.573 327.767 544.208 310.987 564.284 296.465C667.244 221.995 769.506 146.56 872.192 71.7079C905.512 47.4213 939.377 23.8813 972.993 -6.10352e-05C973.148 1.80792 883.037 116.764 836.928 171.701C793.814 223.068 751.134 274.799 708.082 326.217C673.032 368.08 637.632 409.649 602.537 451.475C563.422 498.091 524.597 544.947 485.334 591.437C479.425 598.435 474.301 606.536 463.59 612.308C356.11 467.013 248.578 321.647 138.28 172.541C156.948 177.377 171.025 180.897 185.026 184.692C196.246 187.732 207.249 191.675 218.573 194.216C243.326 199.768 260.245 217.983 279.713 231.759C322.969 262.367 365.35 294.208 408.086 325.547C405.569 331.88 402.172 338.013 400.681 344.579C393.037 378.235 410.949 409.476 449.978 412.257C490.282 415.131 518.497 371.856 503.109 338.92Z" fill="#862A1D"/>
<path d="M254.557 174.787C233.188 158.445 215.981 136.819 192.384 120.761C196.513 113.273 202.818 108.831 208.833 104.571C256.59 70.7439 307.953 44.6693 365.361 31.052C408.885 20.7267 453.036 15.1346 497.337 19.8533C570.924 27.6933 641.464 47.312 706.521 83.7467C718 90.1747 728.876 97.672 740.961 105.261C738.112 110.949 733.212 113.999 728.292 117.347C710.313 129.575 692.248 141.709 674.81 154.677C666.689 160.717 660.468 160.483 651.548 155.76C606.228 131.769 558.48 115.265 507.42 107.312C422.102 94.0226 346.54 118.301 275.716 163.223C269.192 167.36 263.428 172.636 254.557 174.787Z" fill="#3B63B7"/>
<path d="M605.849 213.767C582.354 231.931 559.153 249.868 534.592 268.857C479.313 244.159 425.294 250.179 373.09 280.748C352.398 261.521 329.568 244.924 310.721 223.875C397.944 157.44 514.376 159.22 605.849 213.767Z" fill="#3B63B7"/>
<path d="M503.109 338.92C518.497 371.856 490.282 415.131 449.978 412.257C410.949 409.476 393.037 378.235 400.681 344.579C402.172 338.013 405.569 331.88 408.086 325.547C416.272 321.293 421.004 312.929 430.384 309.453C461.028 298.099 485.885 307.66 503.109 338.92Z" fill="#3B63B7"/>
<path d="M845.848 694.668C838.961 692.803 833.505 687.129 826.718 686.137C823.44 686.632 821.634 688.819 819.796 691.352C821.634 688.819 823.44 686.631 826.717 686.136C833.505 687.128 838.961 692.803 845.848 694.668ZM780.69 781.685C780.125 785.748 779.094 789.463 777.28 792.599C779.094 789.463 780.125 785.747 780.69 781.685ZM532.46 936.578C533.71 934.247 537.177 934.652 538.61 932.511C538.612 932.512 538.613 932.513 538.614 932.513C537.178 934.652 533.71 934.247 532.46 936.578ZM296.868 868.693C300.616 865.03 305.81 862.024 303.994 855.267C303.996 855.267 303.998 855.267 304 855.267C305.809 862.024 300.616 865.03 296.868 868.693ZM167.252 783.185C164.568 781.605 161.764 780.401 158.57 779.961C157.862 780.648 157.198 781.303 156.576 781.924C157.198 781.303 157.864 780.648 158.57 779.961C161.764 780.401 164.568 781.605 167.252 783.185ZM191.416 784.327C184.697 772.341 180.72 771.66 165.284 772.128C165.282 772.125 165.281 772.123 165.281 772.12C180.72 771.657 184.696 772.339 191.416 784.327ZM847.342 221.264C825.772 241.857 809.43 266.613 790.66 288.737C792.564 292.723 794.025 296.336 795.933 299.697C827.038 354.499 841.625 414.229 845.093 476.345C847.118 512.597 841.104 548.723 832.197 584.216C808.152 680.031 755.422 756.747 673.569 811.021C595.586 862.728 509.044 883.828 414.816 869.506C377.808 863.881 342.61 853.884 309.11 837.764C262.481 815.327 221.985 784.923 187.91 745.641C154.525 707.155 128.957 664.496 112.13 616.464C95.754 569.716 91.8426 521.581 92.2635 472.347C92.5791 435.408 99.7848 400.244 110.772 365.552C120.086 336.144 133.137 308.289 150.205 281.771C131.472 257.7 113.069 234.055 94.4135 210.084C-27.9642 362.144 -46.5132 626.145 129.726 811.824C298.97 990.136 573.826 1010.38 767.484 844.736C962.808 677.669 976.124 401.793 847.342 221.264Z" fill="#E7C238"/>
<path d="M393.074 720.256C392.46 720.819 391.844 721.381 391.228 721.944C391.844 721.381 392.458 720.819 393.074 720.256ZM243.594 618.865C241.95 613.24 234.265 616.848 230.63 612.232C234.265 616.848 241.952 613.24 243.601 618.865C246.173 622.971 241.022 627.072 240.676 630.589C241.022 627.072 246.172 622.971 243.594 618.865ZM208.8 444.619C208.05 445.999 208.913 445.936 209.653 445.337C208.913 445.936 208.049 446 208.796 444.621C203.472 447.345 198.144 450.072 193.085 452.66C198.144 450.072 203.472 447.345 208.8 444.619ZM698.777 512.7C697.057 513.203 695.754 514.631 695.761 516.853C695.765 517.167 695.793 517.457 695.844 517.728C695.792 517.453 695.762 517.159 695.76 516.84C695.754 514.629 697.057 513.203 698.777 512.7ZM294.606 728.92C361.162 777.112 435.176 794.383 516.426 779.824C592.54 766.188 652.965 727.513 698.94 665.977C742.068 608.255 761.736 543.073 761.417 471.163C761.344 454.636 758.448 438.693 755.961 422.793C752.478 400.525 746.17 378.589 735.166 356.725C711.641 385.64 689.128 413.309 667.24 440.212C667.24 449.219 666.95 457.043 667.289 464.839C669.386 513.324 657.349 558.307 632.797 599.857C610.928 636.867 580.637 664.609 540.53 681.624C507.958 695.443 475.305 701.893 439.448 696.229C416.761 692.645 396.321 685.424 376.366 675.268C329.824 651.579 299.758 613.439 280.593 565.867C263.778 524.131 257.368 481.256 267.221 434.761C245.509 406.413 222.945 376.952 200.268 347.344C198.072 349.425 196.514 350.26 195.946 351.533C180.793 385.552 172.01 421.32 169.185 458.284C166.693 490.893 169.952 523.323 178.253 555.036C196.925 626.361 234.502 685.403 294.606 728.92Z" fill="#E7C238"/>
<path d="M198.294 446.526L230.158 447.48L229.976 453.58L207.082 466.472L207.179 463.24L229.267 477.251L229.085 483.305L197.218 482.441L197.426 475.522L218.685 476.114L218.647 477.388L201.076 466.201L201.176 462.878L219.391 452.534L219.345 454.082L198.087 453.445L198.294 446.526Z" fill="white"/>
<path d="M197.465 486.893L230.653 497.701L231.413 504.948L201.193 522.449L200.386 514.749L227.162 500.219L227.466 503.118L198.254 494.412L197.465 486.893ZM205 493.247L210.776 494.61L212.485 510.916L207.123 513.493L205 493.247Z" fill="white"/>
<path d="M203.372 531.331L228.683 525.989L226.576 516.007L232.458 514.766L238.195 541.948L232.313 543.189L230.206 533.208L204.895 538.549L203.372 531.331Z" fill="white"/>
<path d="M206.616 547.757L241.323 551.455L243.567 558.387L217.628 581.769L215.244 574.403L238.429 554.642L239.327 557.415L208.945 554.949L206.616 547.757ZM215.304 552.411L221.236 552.549L226.286 568.147L221.574 571.779L215.304 552.411Z" fill="white"/>
<path d="M219.528 585.911L248.34 572.266L254.539 585.355C256.02 588.483 256.722 591.527 256.646 594.486C256.596 597.432 255.82 600.084 254.316 602.442C252.813 604.8 250.593 606.675 247.657 608.065C244.748 609.443 241.891 609.972 239.087 609.655C236.31 609.324 233.752 608.25 231.414 606.435C229.104 604.606 227.208 602.128 225.726 599L219.528 585.911ZM228.16 589.986L231.045 596.078C231.954 597.999 233.097 599.49 234.474 600.552C235.89 601.628 237.453 602.231 239.161 602.363C240.883 602.522 242.649 602.173 244.46 601.315C246.298 600.444 247.688 599.299 248.628 597.88C249.609 596.475 250.118 594.89 250.156 593.125C250.234 591.375 249.818 589.539 248.908 587.618L246.023 581.526L228.16 589.986Z" fill="white"/>
<path d="M234.252 616.694L268.754 611.415L272.693 617.546L253.578 646.771L249.392 640.258L266.769 615.235L268.345 617.687L238.339 623.054L234.252 616.694ZM243.84 618.978L249.611 617.598L258.474 631.391L254.844 636.105L243.84 618.978Z" fill="white"/>
<path d="M256.456 649.906L281.157 629.752L285.821 635.468L265.778 651.822L275.883 664.208L271.226 668.008L256.456 649.906Z" fill="white"/>
<path d="M271.915 669.083L304.321 656.12L309.547 661.197L297.556 693.996L292.003 688.601L303.254 660.29L305.344 662.321L277.337 674.351L271.915 669.083ZM281.771 669.134L287.079 666.481L298.838 677.906L296.372 683.32L281.771 669.134Z" fill="white"/>
<path d="M301.281 696.801L320.225 671.161L325.133 674.787L326.621 704.426L324.24 702.666L337.88 684.205L343.741 688.535L324.797 714.176L319.925 710.576L318.4 680.911L320.781 682.67L307.141 701.131L301.281 696.801Z" fill="white"/>
<path d="M349.522 728.136L361.053 704.98L351.921 700.433L354.601 695.051L379.469 707.435L376.79 712.816L367.658 708.269L356.127 731.425L349.522 728.136Z" fill="white"/>
<path d="M382.845 722.205L397.284 727.407L395.339 732.806L380.9 727.603L382.845 722.205ZM378.913 734.73L395.238 740.612L393.231 746.182L370.008 737.814L380.815 707.822L403.481 715.989L401.474 721.559L385.706 715.877L378.913 734.73Z" fill="white"/>
<path d="M408.165 742.425L409.593 734.019L427.945 721.593L435.952 723.352L419.341 734.856L414.399 738.246L408.165 742.425ZM400.151 748.124L406.995 716.988L414.156 718.562L407.312 749.698L400.151 748.124ZM421.457 752.807L413.363 736.806L419.203 732.727L429.864 754.655L421.457 752.807Z" fill="white"/>
<path d="M434.638 755.089L436.963 723.295L443.049 723.74L460.134 748.004L457.182 747.788L458.856 724.896L466.124 725.427L463.798 757.222L457.757 756.78L440.627 732.513L443.579 732.729L441.905 755.621L434.638 755.089Z" fill="white"/>
<path d="M488.466 756.508C485.954 756.716 483.59 756.5 481.375 755.86C479.189 755.218 477.248 754.221 475.552 752.869C473.886 751.513 472.532 749.874 471.49 747.949C470.477 746.022 469.874 743.878 469.679 741.518C469.483 739.158 469.727 736.944 470.409 734.877C471.122 732.808 472.203 730.967 473.654 729.354C475.105 727.741 476.856 726.439 478.906 725.447C480.957 724.455 483.223 723.856 485.704 723.651C488.216 723.443 490.549 723.662 492.704 724.306C494.89 724.948 496.816 725.947 498.481 727.302C500.177 728.654 501.547 730.293 502.589 732.218C503.629 734.112 504.248 736.254 504.446 738.645C504.641 741.005 504.383 743.235 503.673 745.335C502.961 747.404 501.879 749.245 500.428 750.858C499.005 752.438 497.268 753.724 495.218 754.716C493.198 755.706 490.947 756.303 488.466 756.508ZM487.902 750.248C489.325 750.131 490.606 749.781 491.746 749.199C492.916 748.615 493.918 747.832 494.75 746.849C495.583 745.866 496.19 744.735 496.572 743.454C496.984 742.171 497.127 740.773 497.002 739.26C496.877 737.747 496.506 736.391 495.889 735.193C495.302 733.993 494.518 732.976 493.535 732.143C492.582 731.308 491.481 730.698 490.231 730.314C488.98 729.93 487.644 729.797 486.222 729.915C484.8 730.032 483.503 730.383 482.333 730.967C481.193 731.549 480.207 732.331 479.374 733.314C478.541 734.297 477.919 735.43 477.507 736.713C477.125 737.993 476.997 739.39 477.122 740.903C477.245 742.386 477.601 743.742 478.19 744.973C478.807 746.171 479.591 747.188 480.544 748.023C481.527 748.856 482.643 749.464 483.894 749.848C485.144 750.233 486.48 750.366 487.902 750.248Z" fill="white"/>
<path d="M512.266 753.104L505.585 721.932L512.799 720.386L518.221 745.68L533.851 742.33L535.111 748.208L512.266 753.104Z" fill="white"/>
<path d="M554.754 742.218C552.381 743.065 550.041 743.465 547.735 743.418C545.458 743.361 543.326 742.897 541.339 742.026C539.38 741.146 537.649 739.91 536.146 738.319C534.672 736.718 533.537 734.802 532.741 732.571C531.944 730.341 531.61 728.139 531.737 725.966C531.892 723.783 532.463 721.725 533.45 719.793C534.437 717.861 535.793 716.152 537.519 714.666C539.245 713.179 541.28 712.017 543.625 711.18C545.998 710.333 548.309 709.943 550.558 710.011C552.835 710.068 554.953 710.537 556.911 711.418C558.899 712.288 560.644 713.519 562.147 715.11C563.639 716.672 564.789 718.583 565.595 720.842C566.392 723.073 566.717 725.294 566.572 727.505C566.416 729.689 565.845 731.746 564.859 733.678C563.89 735.571 562.543 737.261 560.817 738.748C559.12 740.224 557.099 741.381 554.754 742.218ZM552.598 736.314C553.942 735.835 555.09 735.167 556.042 734.311C557.022 733.445 557.788 732.431 558.34 731.266C558.891 730.102 559.186 728.852 559.225 727.517C559.293 726.171 559.072 724.783 558.561 723.353C558.051 721.924 557.343 720.709 556.439 719.711C555.563 718.702 554.543 717.921 553.378 717.37C552.243 716.808 551.022 716.502 549.715 716.453C548.407 716.404 547.082 716.619 545.738 717.099C544.394 717.579 543.232 718.252 542.251 719.117C541.3 719.973 540.548 720.983 539.996 722.147C539.445 723.311 539.135 724.566 539.068 725.912C539.029 727.248 539.264 728.63 539.775 730.06C540.275 731.461 540.968 732.681 541.854 733.718C542.759 734.717 543.779 735.497 544.915 736.059C546.079 736.611 547.314 736.911 548.621 736.96C549.928 737.01 551.254 736.794 552.598 736.314Z" fill="white"/>
<path d="M591.102 725.894C588.88 727.083 586.646 727.831 584.4 728.137C582.166 728.403 580.002 728.252 577.908 727.685C575.841 727.104 573.946 726.138 572.225 724.786C570.53 723.421 569.117 721.68 567.985 719.565C566.853 717.45 566.19 715.309 565.994 713.141C565.825 710.959 566.085 708.839 566.776 706.783C567.466 704.726 568.562 702.849 570.063 701.15C571.55 699.424 573.418 697.96 575.667 696.757C578.157 695.425 580.614 694.644 583.039 694.414C585.491 694.169 587.822 694.471 590.033 695.32L587.919 701.41C586.329 700.883 584.795 700.688 583.318 700.824C581.827 700.933 580.372 701.367 578.953 702.126C577.588 702.857 576.458 703.737 575.563 704.767C574.668 705.797 574.02 706.936 573.62 708.183C573.246 709.416 573.126 710.703 573.258 712.044C573.417 713.37 573.854 714.703 574.571 716.042C575.272 717.353 576.131 718.443 577.147 719.312C578.189 720.166 579.334 720.793 580.581 721.193C581.841 721.552 583.134 721.652 584.461 721.494C585.814 721.32 587.16 720.876 588.499 720.159C589.784 719.472 590.921 718.605 591.911 717.559C592.913 716.472 593.725 715.125 594.346 713.518L600.554 716.24C599.644 718.207 598.337 720.043 596.632 721.748C594.953 723.438 593.11 724.82 591.102 725.894ZM594.16 718.576L588.509 708.015L594.452 704.836L600.554 716.24L594.16 718.576Z" fill="white"/>
<path d="M608.304 715.013L590.566 688.523L596.697 684.418L614.434 710.908L608.304 715.013Z" fill="white"/>
<path d="M618.399 708.78L609.179 675.117L614.814 670.497L646.048 686.116L640.061 691.024L613.201 676.648L615.456 674.8L624.246 703.987L618.399 708.78ZM619.563 698.993L617.526 693.419L630.206 683.026L635.307 686.088L619.563 698.993Z" fill="white"/>
<path d="M658.314 673.341L634.062 652.649L643.019 642.151C644.871 639.98 646.826 638.415 648.882 637.455C650.915 636.476 652.954 636.12 655 636.389C657.046 636.658 658.981 637.571 660.805 639.127C662.607 640.665 663.801 642.422 664.389 644.4C664.953 646.358 664.912 648.418 664.264 650.58C663.617 652.742 662.367 654.908 660.515 657.079L654.219 664.459L653.887 659.866L663.103 667.729L658.314 673.341ZM671.468 657.924L657.495 656.479L662.609 650.485L676.642 651.861L671.468 657.924ZM654.511 660.398L649.749 660.646L655.78 653.578C657.258 651.846 657.992 650.237 657.982 648.752C657.949 647.247 657.274 645.933 655.957 644.809C654.618 643.666 653.214 643.207 651.746 643.431C650.277 643.655 648.804 644.633 647.326 646.365L641.296 653.433L640.756 648.662L654.511 660.398Z" fill="white"/>
<path d="M678.084 650.11L659.2 620.757L663.192 614.661L697.671 620.202L693.43 626.679L663.497 621.012L665.094 618.574L682.226 643.785L678.084 650.11ZM676.262 640.424L672.649 635.716L681.631 622.001L687.415 623.393L676.262 640.424Z" fill="white"/>
<path d="M699.047 616.559L670.906 601.579L674.373 595.067L702.514 610.047L699.047 616.559Z" fill="white"/>
<path d="M706.32 602.686L677.117 589.899L680.076 583.14L703.772 593.517L710.185 578.873L715.691 581.285L706.32 602.686Z" fill="white"/>
<path d="M716.315 580.206L690.06 557.207L692.214 550.246L726.884 546.053L724.595 553.449L694.261 556.266L695.122 553.482L718.55 572.984L716.315 580.206ZM711.889 571.399L707.117 567.872L711.963 552.21L717.907 551.951L711.889 571.399Z" fill="white"/>
<path d="M727.576 541.725L696.203 536.062L698.655 522.482C699.162 519.673 700.062 517.337 701.355 515.472C702.618 513.602 704.201 512.268 706.103 511.47C708.006 510.672 710.137 510.486 712.498 510.912C714.828 511.333 716.745 512.249 718.249 513.662C719.723 515.07 720.724 516.87 721.254 519.064C721.784 521.258 721.795 523.759 721.288 526.567L719.565 536.114L716.965 532.312L728.887 534.464L727.576 541.725ZM731.176 521.781L718.377 527.569L719.776 519.815L732.592 513.938L731.176 521.781ZM717.772 532.458L713.783 535.07L715.433 525.927C715.838 523.686 715.662 521.927 714.905 520.649C714.119 519.365 712.874 518.57 711.171 518.262C709.438 517.949 707.994 518.259 706.838 519.192C705.682 520.125 704.902 521.712 704.498 523.953L702.847 533.096L699.979 529.246L717.772 532.458Z" fill="white"/>
<path d="M732.94 511.858L701.947 495.806L702.374 488.532L735.034 476.169L734.58 483.898L705.8 493.888L705.971 490.979L733.383 504.311L732.94 511.858ZM726.537 504.366L721.059 502.083L722.019 485.715L727.729 484.043L726.537 504.366Z" fill="white"/>
<path d="M734.962 471.418L703.186 473.994L702.693 467.912L724.052 447.309L724.291 450.26L701.412 452.115L700.824 444.852L732.599 442.276L733.089 448.313L711.734 468.961L711.494 466.01L734.373 464.155L734.962 471.418Z" fill="white"/>
<path d="M64.4168 303.261L103.941 322.095L111.225 306.808L115.203 308.703L98.4416 343.877L94.4643 341.981L101.749 326.694L62.2254 307.86L64.4168 303.261Z" fill="white"/>
<path d="M42.8071 354.65C44.0112 351.084 45.8077 348.203 48.1964 346.007C50.6286 343.825 53.4061 342.414 56.5289 341.773C59.6951 341.147 62.974 341.406 66.3654 342.552C69.7569 343.697 72.5147 345.428 74.639 347.744C76.7485 350.103 78.1166 352.793 78.7432 355.814C79.3987 358.894 79.1904 362.02 78.1184 365.194C77.0318 368.412 75.3308 371.01 73.0155 372.989C70.7289 375.027 68.0172 376.315 64.8804 376.854C61.787 377.408 58.5228 377.105 55.0879 375.945C54.8705 375.871 54.6387 375.769 54.3925 375.637C54.1751 375.564 53.9359 375.483 53.6751 375.395L63.7412 345.589L67.1978 346.756L57.9687 374.084L57.2159 371.795C59.6942 372.632 62.0735 372.83 64.3538 372.389C66.6628 372.006 68.6692 371.086 70.3729 369.627C72.0767 368.167 73.3324 366.242 74.14 363.851C74.933 361.503 75.1016 359.211 74.6461 356.974C74.1905 354.737 73.1606 352.767 71.5564 351.062C69.9522 349.358 67.8892 348.08 65.3674 347.228L64.65 346.986C62.0411 346.105 59.5458 345.892 57.1639 346.347C54.8108 346.86 52.724 347.947 50.9033 349.609C49.1115 351.329 47.7677 353.515 46.8719 356.168C46.1671 358.255 45.8832 360.314 46.0203 362.347C46.1427 364.422 46.7446 366.37 47.8259 368.188L43.9447 369.783C42.6325 367.645 41.8872 365.262 41.7089 362.634C41.5159 360.05 41.882 357.389 42.8071 354.65Z" fill="white"/>
<path d="M29.1719 404.26C29.9164 400.758 31.3476 397.778 33.4656 395.32C35.6189 392.916 38.2093 391.214 41.2368 390.216C44.3091 389.227 47.5959 389.105 51.0973 389.849C54.6436 390.603 57.5963 392.052 59.9556 394.196C62.315 396.34 63.9666 398.943 64.9106 402.006C65.8451 405.113 65.9401 408.418 65.1957 411.919C64.5562 414.927 63.3952 417.519 61.7126 419.695C60.0301 421.87 57.8738 423.406 55.2436 424.301L53.5784 420.217C55.6317 419.387 57.2757 418.165 58.5103 416.55C59.745 414.936 60.5867 413.074 61.0353 410.964C61.5697 408.451 61.4682 406.06 60.7306 403.791C60.0378 401.533 58.7831 399.6 56.9663 397.994C55.1496 396.388 52.8496 395.289 50.0665 394.697C47.2833 394.105 44.7352 394.174 42.4222 394.902C40.1091 395.63 38.1542 396.88 36.5576 398.652C35.0059 400.433 33.9627 402.581 33.4283 405.094C32.9797 407.204 32.9909 409.248 33.462 411.225C33.9332 413.201 34.9152 414.982 36.4082 416.566L33.2254 419.62C31.2319 417.741 29.8869 415.461 29.1902 412.779C28.5385 410.107 28.5324 407.267 29.1719 404.26Z" fill="white"/>
<path d="M58.1287 459.091C57.9046 462.02 57.1365 464.538 55.8245 466.647C54.5547 468.806 52.7285 470.415 50.346 471.475C47.96 472.581 45.0282 473.001 41.5505 472.735L20.6157 471.133L20.9887 466.26L41.4429 467.825C45.2409 468.116 48.1744 467.374 50.2434 465.599C52.3546 463.873 53.5415 461.295 53.8041 457.863C54.0002 455.3 53.6456 453.018 52.7402 451.015C51.877 449.062 50.5019 447.484 48.6148 446.281C46.77 445.127 44.4748 444.445 41.7292 444.235L22.785 442.786L23.1579 437.912L74.0877 441.81L73.7148 446.683L48.9363 444.787L50.8631 443.968C53.3838 445.311 55.28 447.297 56.5517 449.926C57.8692 452.558 58.3948 455.613 58.1287 459.091Z" fill="white"/>
<path d="M56.7272 508.723C56.8194 511.659 56.3266 514.245 55.249 516.483C54.2186 518.765 52.5761 520.562 50.3215 521.872C48.0683 523.229 45.1986 523.961 41.7125 524.071L20.7269 524.73L20.5735 519.844L41.0775 519.201C44.8848 519.081 47.7214 518.028 49.5875 516.041C51.5009 514.098 52.4036 511.407 52.2956 507.967C52.215 505.398 51.6169 503.167 50.5014 501.274C49.4332 499.425 47.8964 498.003 45.8908 497.01C43.9326 496.062 41.5774 495.631 38.8252 495.717L19.8349 496.313L19.6816 491.428L55.8044 490.294L55.9512 494.973L46.0433 495.284L47.8773 494.469C50.5279 495.533 52.6267 497.304 54.1737 499.781C55.7666 502.256 56.6178 505.237 56.7272 508.723Z" fill="white"/>
<path d="M24.5681 560.163C24.0214 556.718 24.2992 553.491 25.4016 550.481C26.5564 547.51 28.3677 545.016 30.8355 542.998C33.3486 540.972 36.3728 539.679 39.9082 539.118C43.489 538.55 46.765 538.843 49.7363 539.998C52.7076 541.153 55.1795 542.968 57.1522 545.443C59.1248 547.918 60.3881 550.9 60.9419 554.39C61.5029 557.926 61.2287 561.176 60.1192 564.14C59.0169 567.149 57.2283 569.64 54.7533 571.613C52.2855 573.631 49.2612 574.924 45.6805 575.492C42.1451 576.053 38.8691 575.76 35.8525 574.612C32.8884 573.503 30.3938 571.691 28.3686 569.178C26.3888 566.658 25.1219 563.653 24.5681 560.163ZM28.8513 559.483C29.2613 562.067 30.1912 564.266 31.6408 566.08C33.1357 567.887 35.0156 569.192 37.2804 569.994C39.5977 570.835 42.1388 571.036 44.9037 570.597C47.7139 570.151 50.068 569.173 51.9659 567.664C53.8711 566.2 55.232 564.381 56.0486 562.207C56.9106 560.025 57.1402 557.666 56.7374 555.127C56.3346 552.589 55.3857 550.416 53.8908 548.609C52.4412 546.795 50.5803 545.464 48.3084 544.616C46.0364 543.768 43.4953 543.568 40.6851 544.013C37.9202 544.452 35.5661 545.43 33.6228 546.946C31.7249 548.456 30.3449 550.301 29.4829 552.482C28.6663 554.657 28.4557 556.99 28.8513 559.483Z" fill="white"/>
<path d="M32.4561 598.165L81.962 585.587L83.1655 590.324L33.6596 602.902L32.4561 598.165Z" fill="white"/>
<path d="M43.4772 636.679C42.3144 633.39 42.002 630.166 42.5398 627.007C43.1362 623.875 44.4647 621.094 46.5253 618.661C48.6292 616.214 51.3685 614.393 54.7434 613.2C58.1615 611.991 61.4363 611.685 64.5679 612.281C67.6994 612.878 70.4597 614.214 72.8488 616.29C75.2378 618.366 77.0214 621.069 78.1994 624.401C79.3928 627.776 79.7129 631.021 79.1597 634.138C78.6219 637.297 77.315 640.071 75.2391 642.461C73.1786 644.893 70.4392 646.713 67.0211 647.922C63.6462 649.115 60.3714 649.421 57.1966 648.84C54.0803 648.287 51.2984 646.959 48.8508 644.855C46.4464 642.736 44.6552 640.01 43.4772 636.679ZM47.566 635.233C48.438 637.699 49.7515 639.693 51.5064 641.214C53.3045 642.72 55.3899 643.662 57.7627 644.04C60.1941 644.446 62.7294 644.182 65.3687 643.249C68.0513 642.301 70.1889 640.912 71.7814 639.083C73.3892 637.298 74.3974 635.262 74.8059 632.976C75.2577 630.674 75.0552 628.312 74.1985 625.889C73.3417 623.466 72.0143 621.501 70.2161 619.995C68.4613 618.474 66.3898 617.503 64.0017 617.082C61.6136 616.66 59.0783 616.924 56.3957 617.873C53.7564 618.806 51.6188 620.195 49.983 622.039C48.3905 623.867 47.3684 625.932 46.9166 628.234C46.508 630.52 46.7245 632.853 47.566 635.233Z" fill="white"/>
<path d="M52.9196 693.659C51.4375 690.706 50.4479 687.66 49.9507 684.52C49.4535 681.381 49.5828 678.569 50.3385 676.085L54.7725 676.632C54.1805 678.829 54.0507 681.231 54.3829 683.837C54.6947 686.504 55.4784 689.089 56.734 691.591C58.7925 695.693 61.2693 698.224 64.1646 699.184C67.0189 700.165 70.4559 699.647 74.4756 697.63L82.5355 693.585L88.3817 691.422L93.7029 688.212L103.486 683.303L105.585 687.486L77.2215 701.72C71.6432 704.52 66.8723 705.194 62.9091 703.743C58.9254 702.353 55.5956 698.992 52.9196 693.659ZM65.9925 686.098C64.4487 683.021 63.7155 679.923 63.793 676.804C63.9115 673.663 64.8001 670.778 66.4587 668.149C68.1378 665.56 70.5155 663.494 73.5919 661.95C76.6682 660.407 79.7253 659.745 82.7631 659.967C85.8626 660.208 88.6862 661.23 91.2338 663.033C93.7814 664.835 95.8271 667.274 97.3709 670.351C98.8118 673.222 99.5139 676.105 99.4771 678.999C99.4403 681.892 98.5926 684.603 96.9338 687.13C95.2751 689.657 92.764 691.764 89.4006 693.452C86.0372 695.14 82.8468 695.894 79.8295 695.713C76.8122 695.533 74.112 694.603 71.7287 692.924C69.3455 691.244 67.4334 688.969 65.9925 686.098ZM70.0848 684.583C71.2787 686.962 72.831 688.828 74.7417 690.179C76.6934 691.511 78.8188 692.267 81.1177 692.448C83.4577 692.609 85.7967 692.103 88.1347 690.929C90.4727 689.756 92.2559 688.194 93.4845 686.242C94.7131 684.29 95.3564 682.145 95.4145 679.805C95.5137 677.445 94.9663 675.075 93.7724 672.696C92.5991 670.358 91.0263 668.503 89.054 667.131C87.1433 665.779 85.0385 665.012 82.7395 664.831C80.4612 664.691 78.153 665.207 75.815 666.38C73.477 667.554 71.6629 669.106 70.3727 671.037C69.1442 672.989 68.4803 675.145 68.3812 677.505C68.3436 679.886 68.9115 682.245 70.0848 684.583Z" fill="white"/>
<path d="M83.6117 721.011L114.333 701.976L116.907 706.13L86.186 725.166L83.6117 721.011ZM122.426 699.876C121.894 699.018 121.739 698.115 121.962 697.167C122.185 696.219 122.706 695.492 123.525 694.984C124.344 694.476 125.208 694.346 126.117 694.593C127.064 694.815 127.804 695.356 128.336 696.214C128.868 697.072 129.042 697.963 128.858 698.887C128.675 699.81 128.173 700.526 127.354 701.033C126.496 701.565 125.593 701.72 124.645 701.497C123.722 701.314 122.982 700.773 122.426 699.876Z" fill="white"/>
<path d="M110.551 760.405L116.967 755.651L117.895 754.707L128.626 746.757C131.096 744.926 132.476 742.818 132.766 740.434C133.082 738.086 132.23 735.547 130.208 732.819C128.815 730.938 127.176 729.382 125.293 728.15C123.409 726.918 121.514 726.095 119.607 725.68L121.227 721.738C123.574 722.284 125.844 723.344 128.038 724.917C130.268 726.463 132.23 728.379 133.924 730.665C136.711 734.426 137.915 738.018 137.537 741.439C137.224 744.87 135.168 747.993 131.369 750.807L113.338 764.166L110.551 760.405ZM102.857 750.598C101.245 748.423 100.188 746.264 99.6869 744.123C99.2497 741.991 99.3437 740.036 99.9691 738.259C100.631 736.455 101.792 734.938 103.452 733.708C104.963 732.588 106.587 731.928 108.323 731.727C110.123 731.535 111.993 731.978 113.933 733.054C115.937 734.139 117.963 736.065 120.012 738.831L127.429 748.842L124.498 751.014L117.162 741.113C115.086 738.311 113.14 736.725 111.325 736.357C109.537 736.025 107.906 736.406 106.431 737.498C104.771 738.728 103.922 740.357 103.883 742.385C103.843 744.413 104.684 746.589 106.405 748.912C108.044 751.124 109.949 752.655 112.12 753.503C114.354 754.36 116.703 754.447 119.167 753.764L117.113 756.657C114.649 757.34 112.162 757.184 109.653 756.187C107.171 755.227 104.906 753.364 102.857 750.598Z" fill="white"/>
<path d="M153.839 809.431C151.347 807.057 149.642 804.355 148.725 801.326C147.841 798.329 147.783 795.295 148.553 792.225C149.354 789.122 151.005 786.258 153.506 783.633C156.038 780.975 158.819 779.187 161.848 778.269C164.877 777.352 167.894 777.279 170.9 778.05C173.969 778.82 176.75 780.392 179.243 782.766C181.535 784.95 183.088 787.412 183.901 790.151C184.747 792.922 184.752 795.811 183.916 798.818C183.145 801.823 181.398 804.754 178.676 807.612C175.985 810.436 173.159 812.339 170.196 813.319C167.233 814.3 164.332 814.452 161.491 813.774C158.716 813.094 156.165 811.647 153.839 809.431ZM157.08 806.528C158.94 808.301 160.997 809.468 163.251 810.031C165.569 810.591 167.872 810.503 170.159 809.766C172.51 809.027 174.652 807.644 176.583 805.618C178.545 803.557 179.823 801.352 180.415 799C181.04 796.68 181.001 794.393 180.297 792.138C179.658 789.881 178.409 787.866 176.548 786.093C174.72 784.352 172.664 783.217 170.379 782.688C168.126 782.126 165.839 782.198 163.519 782.903C161.199 783.609 159.057 784.991 157.095 787.052C155.164 789.078 153.886 791.284 153.262 793.669C152.67 796.021 152.693 798.325 153.332 800.581C154.003 802.805 155.252 804.787 157.08 806.528ZM164.194 818.821L171.697 810.946L177.079 805.995L181.614 800.237L199.277 781.696L202.816 785.067L167.583 822.05L164.194 818.821Z" fill="white"/>
<path d="M203.116 850.411L207.909 844.024L208.529 842.854L216.544 832.172C218.39 829.712 219.111 827.299 218.707 824.931C218.341 822.59 216.799 820.4 214.083 818.362C212.211 816.957 210.196 815.933 208.04 815.29C205.883 814.647 203.831 814.399 201.886 814.546L202.313 810.305C204.718 810.159 207.196 810.527 209.748 811.408C212.327 812.253 214.754 813.53 217.03 815.238C220.774 818.047 222.953 821.145 223.568 824.532C224.246 827.91 223.167 831.49 220.33 835.271L206.86 853.221L203.116 850.411ZM192.943 843.208C190.778 841.583 189.149 839.816 188.057 837.906C187.03 835.988 186.562 834.088 186.654 832.206C186.774 830.288 187.454 828.503 188.693 826.851C189.822 825.346 191.19 824.249 192.797 823.561C194.467 822.864 196.386 822.754 198.552 823.232C200.782 823.701 203.274 824.968 206.027 827.034L215.993 834.512L213.803 837.431L203.947 830.035C201.157 827.941 198.84 826.977 196.995 827.142C195.187 827.334 193.732 828.165 192.63 829.633C191.39 831.285 191.041 833.088 191.582 835.043C192.123 836.999 193.55 838.844 195.863 840.579C198.065 842.232 200.328 843.155 202.65 843.348C205.036 843.532 207.312 842.945 209.479 841.587L208.335 844.946C206.169 846.304 203.741 846.864 201.052 846.624C198.399 846.413 195.696 845.274 192.943 843.208Z" fill="white"/>
<path d="M246.156 877.941L269.451 835.758L273.91 838.221L250.615 880.404L246.156 877.941Z" fill="white"/>
<path d="M301.252 864.683C303.939 865.868 306.06 867.429 307.613 869.367C309.227 871.281 310.138 873.539 310.347 876.138C310.598 878.756 310.02 881.661 308.614 884.853L300.149 904.066L295.676 902.096L303.947 883.323C305.483 879.837 305.757 876.824 304.77 874.283C303.844 871.718 301.806 869.742 298.656 868.354C296.304 867.318 294.034 866.894 291.844 867.083C289.715 867.249 287.77 868.021 286.008 869.402C284.307 870.758 282.902 872.697 281.792 875.217L274.131 892.604L269.658 890.633L284.23 857.56L288.514 859.447L284.517 868.519L284.573 866.513C286.678 864.581 289.181 863.453 292.083 863.126C295.004 862.758 298.06 863.277 301.252 864.683Z" fill="white"/>
<path d="M319.35 910.97L332.109 872.338C333.116 869.288 334.823 867.121 337.228 865.837C339.634 864.553 342.514 864.465 345.87 865.574C347.177 866.005 348.383 866.597 349.488 867.349C350.593 868.1 351.437 868.983 352.021 869.998L349.308 872.944C348.841 872.161 348.215 871.496 347.43 870.946C346.659 870.353 345.773 869.891 344.771 869.56C342.81 868.913 341.126 868.961 339.721 869.705C338.315 870.449 337.259 871.889 336.554 874.024L334.827 879.253L334.245 881.454L323.991 912.503L319.35 910.97ZM323.266 878.48L324.539 874.623L345.783 881.639L344.51 885.496L323.266 878.48Z" fill="white"/>
<path d="M364.135 924.272C360.734 923.496 357.843 922.036 355.461 919.891C353.134 917.712 351.494 915.102 350.541 912.06C349.599 908.973 349.526 905.685 350.323 902.195C351.13 898.66 352.623 895.729 354.802 893.403C356.981 891.076 359.586 889.458 362.618 888.55C365.65 887.642 368.888 887.581 372.333 888.368C375.823 889.164 378.737 890.63 381.074 892.764C383.456 894.909 385.101 897.497 386.009 900.529C386.962 903.571 387.035 906.859 386.228 910.393C385.431 913.883 383.938 916.814 381.749 919.186C379.614 921.523 377.004 923.163 373.917 924.105C370.84 925.003 367.58 925.059 364.135 924.272ZM365.1 920.044C367.65 920.627 370.037 920.583 372.261 919.914C374.496 919.201 376.407 917.942 377.996 916.14C379.639 914.303 380.772 912.019 381.396 909.29C382.029 906.516 381.999 903.967 381.306 901.644C380.657 899.33 379.476 897.389 377.763 895.821C376.06 894.208 373.956 893.116 371.45 892.544C368.945 891.972 366.575 892.043 364.341 892.756C362.117 893.425 360.188 894.656 358.555 896.448C356.922 898.241 355.788 900.524 355.155 903.298C354.532 906.027 354.562 908.576 355.245 910.945C355.938 913.268 357.136 915.237 358.839 916.849C360.552 918.417 362.639 919.482 365.1 920.044Z" fill="white"/>
<path d="M402.495 931.276L407.105 895.431L411.748 896.028L410.492 905.791L410.234 904.023C411.586 901.421 413.537 899.566 416.085 898.459C418.639 897.307 421.669 896.956 425.174 897.407L424.568 902.118C424.386 902.095 424.204 902.071 424.022 902.048C423.845 901.979 423.666 901.933 423.484 901.91C419.706 901.424 416.598 902.204 414.16 904.25C411.728 906.251 410.24 909.368 409.696 913.601L407.343 931.899L402.495 931.276Z" fill="white"/>
<path d="M482.955 899.602C485.892 899.605 488.439 900.181 490.595 901.331C492.796 902.434 494.493 904.134 495.684 906.43C496.921 908.726 497.537 911.618 497.534 915.105L497.513 936.101L492.626 936.097L492.646 915.582C492.65 911.773 491.735 908.904 489.901 906.975C488.113 905 485.567 904.01 482.262 904.007C479.784 904.005 477.627 904.53 475.79 905.584C473.999 906.592 472.598 908.082 471.586 910.055C470.621 911.981 470.137 914.321 470.134 917.075L470.115 936.074L465.228 936.069L465.248 915.555C465.252 911.746 464.337 908.877 462.503 906.948C460.669 904.973 458.1 903.983 454.796 903.98C452.363 903.978 450.229 904.503 448.392 905.557C446.555 906.565 445.131 908.055 444.12 910.027C443.154 911.954 442.67 914.294 442.667 917.048L442.648 936.047L437.761 936.042L437.796 899.902L442.477 899.906L442.468 909.682L441.712 907.96C442.816 905.345 444.585 903.305 447.019 901.838C449.499 900.326 452.414 899.572 455.764 899.575C459.297 899.579 462.303 900.477 464.779 902.269C467.255 904.015 468.859 906.656 469.59 910.19L467.663 909.431C468.722 906.495 470.583 904.133 473.246 902.346C475.956 900.513 479.192 899.598 482.955 899.602Z" fill="white"/>
<path d="M542.388 930.206L541.23 922.305L540.837 921.041L538.901 907.827C538.455 904.785 537.25 902.573 535.285 901.191C533.365 899.802 530.725 899.354 527.365 899.846C525.049 900.186 522.903 900.894 520.928 901.972C518.952 903.05 517.331 904.331 516.064 905.816L513.356 902.525C514.946 900.715 516.952 899.215 519.375 898.025C521.792 896.79 524.408 895.966 527.223 895.554C531.855 894.875 535.589 895.511 538.426 897.461C541.301 899.359 543.081 902.646 543.767 907.323L547.02 929.528L542.388 930.206ZM530.109 932.353C527.43 932.745 525.029 932.657 522.904 932.087C520.819 931.464 519.141 930.458 517.87 929.067C516.593 927.631 515.805 925.891 515.505 923.848C515.232 921.986 515.418 920.243 516.061 918.618C516.743 916.941 518.016 915.502 519.881 914.301C521.785 913.048 524.44 912.172 527.845 911.673L540.174 909.867L540.702 913.477L528.51 915.263C525.059 915.769 522.742 916.734 521.56 918.16C520.423 919.579 519.987 921.197 520.253 923.013C520.552 925.056 521.587 926.575 523.355 927.568C525.124 928.561 527.439 928.848 530.3 928.429C533.024 928.03 535.273 927.074 537.046 925.562C538.858 923.998 540.045 921.969 540.607 919.475L542.186 922.652C541.623 925.147 540.31 927.264 538.246 929.004C536.227 930.738 533.515 931.854 530.109 932.353Z" fill="white"/>
<path d="M583.154 921.868C579.69 922.768 576.384 922.821 573.238 922.026C570.124 921.175 567.444 919.619 565.197 917.358C562.938 915.053 561.359 912.167 560.459 908.703C559.547 905.194 559.522 901.905 560.385 898.836C561.247 895.767 562.836 893.125 565.154 890.911C567.515 888.685 570.428 887.122 573.893 886.222C576.869 885.449 579.706 885.328 582.405 885.86C585.103 886.391 587.441 887.633 589.418 889.585L586.51 892.901C584.849 891.436 583.021 890.512 581.025 890.13C579.029 889.748 576.987 889.828 574.899 890.37C572.412 891.017 570.319 892.177 568.62 893.851C566.91 895.481 565.743 897.467 565.119 899.811C564.495 902.154 564.541 904.703 565.256 907.456C565.972 910.21 567.172 912.459 568.858 914.202C570.544 915.945 572.536 917.135 574.835 917.77C577.122 918.361 579.51 918.334 581.997 917.687C584.085 917.145 585.907 916.221 587.465 914.915C589.022 913.61 590.175 911.935 590.925 909.891L595.079 911.372C594.291 913.995 592.853 916.218 590.766 918.041C588.668 919.819 586.13 921.094 583.154 921.868ZM584.078 936.92C582.967 937.208 581.911 937.34 580.909 937.316C579.952 937.28 579.009 937.122 578.083 936.841L578.558 934.015C579.328 934.242 580.097 934.374 580.866 934.411C581.678 934.437 582.485 934.346 583.284 934.139C584.617 933.792 585.563 933.238 586.124 932.476C586.696 931.758 586.855 930.911 586.601 929.934C586.371 929.045 585.825 928.405 584.964 928.012C584.148 927.608 583.051 927.584 581.674 927.942L580.142 928.34L580.166 921.862L583.03 921.117L583.035 925.241C584.891 924.902 586.434 925.093 587.665 925.817C588.908 926.584 589.72 927.701 590.101 929.167C590.562 930.944 590.215 932.527 589.059 933.918C587.959 935.342 586.299 936.343 584.078 936.92Z" fill="white"/>
<path d="M636.361 904.097L633.526 896.632L632.868 895.483L628.126 882.998C627.034 880.124 625.379 878.224 623.162 877.299C620.988 876.358 618.314 876.49 615.139 877.696C612.951 878.527 611.009 879.682 609.312 881.161C607.616 882.64 606.309 884.241 605.393 885.964L602.038 883.335C603.2 881.225 604.836 879.327 606.945 877.642C609.038 875.915 611.414 874.545 614.074 873.535C618.45 871.873 622.233 871.687 625.424 872.979C628.641 874.211 631.089 877.037 632.768 881.456L640.737 902.435L636.361 904.097ZM624.836 908.844C622.305 909.805 619.94 910.237 617.743 910.139C615.572 909.982 613.716 909.361 612.176 908.277C610.618 907.151 609.473 905.622 608.74 903.691C608.072 901.932 607.876 900.19 608.154 898.465C608.457 896.68 609.39 895 610.952 893.425C612.54 891.791 614.943 890.363 618.161 889.14L629.809 884.716L631.104 888.126L619.585 892.502C616.325 893.741 614.271 895.184 613.424 896.831C612.62 898.462 612.544 900.135 613.196 901.851C613.929 903.782 615.266 905.041 617.208 905.629C619.15 906.217 621.472 905.998 624.175 904.971C626.749 903.993 628.738 902.575 630.143 900.715C631.574 898.797 632.295 896.56 632.306 894.003L634.533 896.765C634.523 899.322 633.697 901.673 632.058 903.817C630.461 905.946 628.053 907.621 624.836 908.844ZM616.549 866.483C615.563 866.857 614.602 866.977 613.667 866.841C612.731 866.706 611.836 866.481 610.981 866.168C610.152 865.795 609.356 865.509 608.592 865.308C607.812 865.064 607.1 865.065 606.457 865.309C605.47 865.684 604.815 866.35 604.491 867.307C604.211 868.249 604.272 869.379 604.675 870.699L601.908 871.75C601.179 869.572 601.085 867.644 601.625 865.966C602.209 864.272 603.337 863.107 605.011 862.471C605.997 862.096 606.967 861.998 607.918 862.177C608.896 862.296 609.8 862.542 610.628 862.914C611.484 863.228 612.272 863.493 612.992 863.71C613.756 863.911 614.46 863.889 615.103 863.645C616.09 863.27 616.753 862.625 617.093 861.71C617.417 860.753 617.364 859.644 616.934 858.383L619.701 857.332C620.44 859.408 620.518 861.293 619.935 862.987C619.351 864.682 618.223 865.847 616.549 866.483Z" fill="white"/>
<path d="M674.317 887.184C671.222 888.791 668.072 889.546 664.868 889.45C661.684 889.293 658.745 888.362 656.051 886.658C653.336 884.913 651.154 882.452 649.506 879.274C647.836 876.056 647.08 872.855 647.237 869.671C647.395 866.487 648.336 863.569 650.062 860.915C651.787 858.262 654.218 856.122 657.355 854.494C660.532 852.845 663.702 852.079 666.865 852.196C670.068 852.292 672.997 853.202 675.65 854.928C678.344 856.632 680.526 859.093 682.196 862.311C683.845 865.489 684.601 868.69 684.464 871.914C684.348 875.077 683.417 878.016 681.672 880.731C679.906 883.406 677.454 885.557 674.317 887.184ZM672.32 883.335C674.642 882.13 676.435 880.553 677.699 878.605C678.942 876.616 679.586 874.42 679.632 872.018C679.698 869.554 679.086 867.079 677.796 864.594C676.486 862.069 674.815 860.144 672.783 858.819C670.793 857.474 668.637 856.757 666.316 856.669C663.974 856.54 661.663 857.067 659.382 858.251C657.1 859.435 655.338 861.021 654.096 863.01C652.832 864.959 652.156 867.144 652.07 869.568C651.983 871.991 652.595 874.466 653.905 876.991C655.195 879.476 656.865 881.401 658.918 882.766C660.95 884.09 663.136 884.817 665.478 884.946C667.799 885.034 670.08 884.497 672.32 883.335Z" fill="white"/>
<path d="M741.33 845.098C738.336 847.378 735.235 848.76 732.026 849.243C728.789 849.69 725.698 849.305 722.751 848.088C719.777 846.835 717.205 844.784 715.036 841.937C712.866 839.089 711.55 836.112 711.086 833.004C710.658 829.868 711.03 826.873 712.202 824.018C713.382 821.1 715.305 818.625 717.97 816.595C720.671 814.537 723.535 813.336 726.561 812.991C729.596 812.583 732.565 813.033 735.466 814.342C738.339 815.615 740.875 817.693 743.072 820.577C743.211 820.759 743.346 820.974 743.476 821.221C743.615 821.403 743.768 821.604 743.935 821.823L718.911 840.889L716.699 837.987L739.643 820.506L738.986 822.824C737.401 820.744 735.54 819.248 733.403 818.337C731.276 817.362 729.098 817.002 726.869 817.257C724.64 817.513 722.522 818.405 720.515 819.935C718.543 821.437 717.12 823.242 716.246 825.351C715.372 827.459 715.122 829.669 715.498 831.979C715.873 834.289 716.867 836.503 718.48 838.62L718.939 839.223C720.608 841.413 722.557 842.986 724.785 843.942C727.022 844.834 729.36 845.101 731.799 844.743C734.247 844.32 736.584 843.261 738.811 841.564C740.563 840.229 741.951 838.681 742.975 836.921C744.035 835.132 744.626 833.181 744.748 831.069L748.858 831.919C748.748 834.426 748.032 836.818 746.709 839.095C745.422 841.345 743.629 843.345 741.33 845.098Z" fill="white"/>
<path d="M802.466 789.138C800.026 791.819 797.33 793.896 794.378 795.367C791.392 796.807 788.328 797.617 785.185 797.798C782.042 797.978 778.935 797.54 775.864 796.483C772.824 795.392 769.997 793.657 767.384 791.278C764.77 788.9 762.777 786.249 761.405 783.325C760.063 780.367 759.335 777.315 759.219 774.169C759.134 770.989 759.685 767.861 760.872 764.783C762.025 761.675 763.822 758.781 766.262 756.099C768.609 753.519 771.259 751.494 774.211 750.023C777.129 748.521 780.164 747.777 783.316 747.791L783.531 752.361C780.709 752.462 778.173 753.101 775.922 754.279C773.637 755.427 771.568 757.019 769.715 759.055C767.769 761.193 766.335 763.519 765.414 766.031C764.459 768.513 764.042 771.05 764.165 773.643C764.253 776.206 764.841 778.696 765.93 781.114C767.015 783.466 768.627 785.616 770.766 787.562C772.904 789.508 775.213 790.926 777.691 791.816C780.166 792.642 782.701 792.993 785.294 792.871C787.853 792.718 790.34 792.065 792.755 790.911C795.136 789.727 797.299 788.066 799.245 785.927C801.098 783.891 802.488 781.681 803.416 779.298C804.343 776.915 804.724 774.315 804.559 771.496L809.129 771.281C809.439 774.417 809.001 777.524 807.814 780.602C806.627 783.679 804.845 786.524 802.466 789.138Z" fill="white"/>
<path d="M835.358 747.998C833.362 750.859 830.923 752.99 828.042 754.393C825.149 755.732 822.113 756.272 818.936 756.014C815.721 755.729 812.646 754.562 809.71 752.514C806.737 750.439 804.581 747.955 803.242 745.062C801.903 742.169 801.382 739.147 801.678 735.996C801.974 732.845 803.133 729.82 805.156 726.923C807.204 723.987 809.656 721.837 812.511 720.471C815.393 719.069 818.409 718.515 821.561 718.811C824.738 719.07 827.813 720.237 830.786 722.311C833.722 724.36 835.878 726.844 837.254 729.763C838.62 732.618 839.16 735.654 838.875 738.869C838.553 742.057 837.38 745.101 835.358 747.998ZM831.801 745.517C833.298 743.371 834.154 741.143 834.369 738.83C834.546 736.491 834.097 734.247 833.023 732.098C831.937 729.886 830.246 727.978 827.95 726.376C825.617 724.748 823.243 723.819 820.829 723.589C818.441 723.322 816.199 723.688 814.102 724.687C811.968 725.661 810.166 727.201 808.695 729.309C807.224 731.416 806.401 733.639 806.223 735.978C806.009 738.291 806.426 740.54 807.474 742.727C808.522 744.913 810.213 746.821 812.547 748.449C814.842 750.051 817.216 750.98 819.668 751.236C822.082 751.466 824.356 751.094 826.49 750.121C828.587 749.121 830.357 747.587 831.801 745.517Z" fill="white"/>
<path d="M844.874 657.327C846.152 654.682 847.776 652.639 849.748 651.196C851.698 649.691 853.966 648.901 856.551 648.825C859.156 648.708 862.029 649.408 865.169 650.926L884.074 660.061L881.947 664.462L863.477 655.536C860.047 653.879 857.065 653.457 854.531 654.271C851.975 655.024 849.979 656.888 848.541 659.864C847.463 662.095 846.999 664.267 847.151 666.379C847.281 668.429 848.015 670.339 849.353 672.106C850.669 673.813 852.567 675.265 855.046 676.463L872.153 684.73L870.026 689.13L851.556 680.205C848.126 678.548 845.144 678.126 842.61 678.94C840.035 679.734 838.028 681.619 836.59 684.594C835.532 686.784 835.079 688.935 835.23 691.047C835.341 693.139 836.065 695.069 837.402 696.837C838.718 698.543 840.616 699.996 843.095 701.194L860.202 709.46L858.076 713.861L825.535 698.136L827.572 693.922L836.373 698.175L834.494 698.108C832.618 695.978 831.548 693.499 831.284 690.67C830.999 687.779 831.585 684.826 833.043 681.81C834.58 678.628 836.694 676.311 839.384 674.858C842.032 673.385 845.107 673.087 848.608 673.964L847.088 675.37C844.903 673.141 843.583 670.44 843.13 667.264C842.655 664.028 843.236 660.715 844.874 657.327Z" fill="white"/>
<path d="M896.149 624.091C895.269 627.037 893.951 629.446 892.195 631.316C890.438 633.186 888.277 634.408 885.711 634.982C883.157 635.513 880.232 635.285 876.934 634.3L856.816 628.289L858.216 623.606L877.805 629.459C881.499 630.563 884.56 630.496 886.99 629.258C889.389 627.963 891.081 625.666 892.066 622.368C892.789 619.95 892.929 617.717 892.487 615.669C892.014 613.564 890.971 611.767 889.356 610.279C887.754 608.746 885.634 607.586 882.996 606.798L864.857 601.378L866.257 596.695L900.884 607.042L899.544 611.527L890.046 608.689L891.978 608.476C894.2 610.337 895.688 612.65 896.443 615.414C897.167 618.121 897.069 621.013 896.149 624.091Z" fill="white"/>
<path d="M872.917 561.884C873.401 558.987 874.39 556.547 875.884 554.563C877.341 552.527 879.303 551.086 881.77 550.242C884.245 549.352 887.203 549.195 890.643 549.769L911.352 553.227L910.547 558.048L890.313 554.669C886.556 554.042 883.568 554.52 881.35 556.104C879.094 557.635 877.682 560.098 877.115 563.493C876.692 566.028 876.842 568.333 877.566 570.408C878.251 572.43 879.481 574.124 881.253 575.49C882.988 576.803 885.214 577.687 887.93 578.14L906.67 581.27L905.865 586.091L870.218 580.138L870.989 575.521L880.766 577.154L878.808 577.594C876.417 576.032 874.705 573.885 873.672 571.153C872.594 568.414 872.342 565.325 872.917 561.884Z" fill="white"/>
<path d="M913.179 533.477L877.143 530.727L877.515 525.854L913.551 528.604L913.179 533.477ZM869.369 527.648C869.293 528.655 868.885 529.476 868.146 530.11C867.407 530.744 866.557 531.024 865.596 530.951C864.635 530.877 863.861 530.473 863.273 529.738C862.639 528.999 862.36 528.126 862.437 527.119C862.514 526.113 862.899 525.291 863.592 524.653C864.285 524.016 865.112 523.733 866.073 523.807C867.079 523.884 867.9 524.291 868.534 525.03C869.171 525.723 869.45 526.596 869.369 527.648Z" fill="white"/>
<path d="M915.044 493.523C915.068 497.103 914.309 500.32 912.768 503.176C911.181 505.986 909.016 508.204 906.273 509.828C903.484 511.453 900.3 512.278 896.721 512.302C893.095 512.326 889.901 511.545 887.136 509.957C884.372 508.369 882.2 506.181 880.621 503.392C879.042 500.557 878.24 497.35 878.216 493.771C878.195 490.696 878.773 487.915 879.95 485.429C881.126 482.943 882.903 480.981 885.28 479.542L887.782 483.174C885.955 484.425 884.611 485.972 883.752 487.813C882.892 489.655 882.47 491.654 882.484 493.811C882.501 496.381 883.114 498.694 884.321 500.751C885.482 502.809 887.122 504.427 889.241 505.606C891.36 506.785 893.842 507.365 896.688 507.346C899.533 507.327 902.007 506.713 904.11 505.506C906.213 504.299 907.854 502.658 909.033 500.585C910.167 498.512 910.725 496.191 910.708 493.621C910.693 491.464 910.244 489.471 909.359 487.641C908.475 485.811 907.134 484.283 905.336 483.056L907.79 479.391C910.14 480.798 911.942 482.736 913.198 485.206C914.408 487.676 915.023 490.448 915.044 493.523Z" fill="white"/>
<path d="M910.75 437.835L902.822 438.784L901.548 439.144L888.287 440.732C885.234 441.097 882.991 442.244 881.558 444.172C880.119 446.054 879.602 448.681 880.006 452.053C880.284 454.377 880.936 456.541 881.961 458.544C882.987 460.548 884.225 462.202 885.675 463.507L882.314 466.128C880.547 464.491 879.1 462.446 877.975 459.992C876.803 457.544 876.049 454.907 875.711 452.082C875.154 447.434 875.888 443.718 877.912 440.934C879.885 438.109 883.218 436.416 887.912 435.854L910.194 433.187L910.75 437.835ZM912.573 450.166C912.895 452.854 912.743 455.253 912.117 457.361C911.44 459.43 910.39 461.081 908.966 462.314C907.497 463.553 905.737 464.295 903.686 464.541C901.818 464.764 900.08 464.533 898.473 463.848C896.814 463.122 895.409 461.811 894.258 459.915C893.056 457.979 892.25 455.302 891.841 451.884L890.36 439.513L893.983 439.079L895.447 451.314C895.862 454.777 896.766 457.119 898.16 458.339C899.548 459.513 901.154 459.991 902.977 459.773C905.027 459.527 906.572 458.533 907.612 456.791C908.651 455.049 908.999 452.743 908.655 449.872C908.328 447.138 907.432 444.865 905.967 443.053C904.451 441.2 902.454 439.96 899.975 439.333L903.194 437.838C905.672 438.466 907.754 439.834 909.44 441.944C911.119 444.007 912.164 446.748 912.573 450.166Z" fill="white"/>
<path d="M903.338 396.725C904.164 400.208 904.147 403.514 903.285 406.643C902.368 409.737 900.755 412.384 898.447 414.582C896.093 416.791 893.175 418.308 889.692 419.134C886.164 419.971 882.876 419.926 879.826 418.998C876.776 418.071 874.169 416.425 872.005 414.061C869.83 411.653 868.329 408.707 867.503 405.224C866.794 402.232 866.734 399.393 867.323 396.706C867.912 394.019 869.203 391.708 871.197 389.774L874.45 392.752C872.95 394.381 871.988 396.189 871.563 398.177C871.138 400.164 871.174 402.207 871.672 404.306C872.265 406.806 873.38 408.924 875.018 410.658C876.611 412.403 878.572 413.612 880.901 414.286C883.231 414.96 885.78 414.968 888.548 414.312C891.317 413.655 893.591 412.503 895.369 410.855C897.148 409.207 898.38 407.24 899.064 404.955C899.704 402.681 899.727 400.294 899.134 397.793C898.637 395.694 897.752 393.852 896.48 392.268C895.208 390.683 893.558 389.494 891.531 388.701L893.1 384.579C895.706 385.423 897.897 386.908 899.675 389.034C901.408 391.17 902.629 393.734 903.338 396.725ZM918.407 396.123C918.671 397.24 918.781 398.299 918.735 399.3C918.679 400.256 918.501 401.195 918.2 402.115L915.385 401.58C915.628 400.815 915.776 400.049 915.83 399.281C915.874 398.469 915.8 397.661 915.609 396.858C915.292 395.518 914.758 394.56 914.008 393.983C913.302 393.395 912.459 393.218 911.476 393.451C910.583 393.663 909.931 394.195 909.52 395.047C909.098 395.855 909.052 396.951 909.38 398.335L909.745 399.875L903.269 399.713L902.586 396.833L906.709 396.917C906.409 395.054 906.633 393.515 907.383 392.3C908.177 391.074 909.311 390.286 910.784 389.936C912.57 389.513 914.146 389.894 915.512 391.079C916.912 392.209 917.877 393.891 918.407 396.123Z" fill="white"/>
<path d="M886.525 343.039L879.013 345.748L877.853 346.386L865.289 350.916C862.397 351.958 860.469 353.58 859.507 355.781C858.528 357.939 858.615 360.615 859.767 363.81C860.561 366.012 861.683 367.973 863.133 369.695C864.583 371.416 866.161 372.75 867.868 373.695L865.183 377.005C863.093 375.807 861.223 374.14 859.574 372.002C857.882 369.88 856.554 367.481 855.589 364.804C854.001 360.401 853.88 356.615 855.225 353.447C856.512 350.251 859.379 347.851 863.826 346.248L884.937 338.636L886.525 343.039ZM891.075 354.644C891.993 357.191 892.385 359.562 892.249 361.758C892.055 363.926 891.403 365.77 890.294 367.293C889.14 368.83 887.593 369.95 885.65 370.65C883.88 371.288 882.135 371.454 880.414 371.147C878.635 370.813 876.971 369.852 875.423 368.264C873.816 366.648 872.428 364.221 871.261 360.983L867.035 349.262L870.467 348.024L874.646 359.616C875.83 362.897 877.237 364.975 878.87 365.85C880.487 366.682 882.159 366.786 883.886 366.164C885.829 365.463 887.11 364.147 887.731 362.216C888.352 360.285 888.172 357.959 887.192 355.239C886.258 352.649 884.873 350.636 883.038 349.2C881.144 347.736 878.919 346.977 876.363 346.923L879.163 344.743C881.719 344.797 884.055 345.662 886.172 347.338C888.273 348.971 889.907 351.406 891.075 354.644ZM848.579 362.209C848.937 363.202 849.04 364.165 848.889 365.098C848.737 366.031 848.498 366.922 848.17 367.772C847.783 368.594 847.483 369.385 847.27 370.146C847.013 370.921 847.001 371.633 847.234 372.28C847.592 373.273 848.247 373.94 849.199 374.28C850.135 374.576 851.267 374.534 852.593 374.153L853.597 376.938C851.407 377.63 849.478 377.691 847.809 377.122C846.125 376.51 844.979 375.362 844.372 373.678C844.014 372.685 843.932 371.715 844.127 370.766C844.263 369.79 844.524 368.891 844.911 368.069C845.239 367.219 845.517 366.436 845.747 365.719C845.96 364.959 845.95 364.255 845.717 363.607C845.359 362.614 844.726 361.94 843.817 361.585C842.865 361.245 841.755 361.279 840.488 361.687L839.484 358.903C841.572 358.199 843.458 358.153 845.142 358.765C846.826 359.378 847.972 360.526 848.579 362.209Z" fill="white"/>
<path d="M870.143 304.744C871.707 307.862 872.42 311.021 872.281 314.223C872.08 317.405 871.11 320.331 869.369 323.001C867.587 325.693 865.097 327.841 861.897 329.447C858.657 331.073 855.446 331.786 852.264 331.585C849.083 331.384 846.177 330.404 843.548 328.642C840.918 326.881 838.811 324.421 837.226 321.263C835.62 318.064 834.897 314.883 835.057 311.722C835.196 308.521 836.146 305.605 837.907 302.975C839.648 300.304 842.138 298.156 845.379 296.53C848.578 294.924 851.789 294.212 855.012 294.392C858.172 294.551 861.099 295.522 863.79 297.303C866.44 299.106 868.558 301.586 870.143 304.744ZM866.266 306.689C865.093 304.351 863.541 302.537 861.61 301.247C859.638 299.978 857.451 299.303 855.049 299.225C852.586 299.126 850.104 299.704 847.602 300.96C845.059 302.236 843.111 303.881 841.76 305.894C840.387 307.866 839.641 310.012 839.522 312.332C839.361 314.672 839.857 316.99 841.01 319.287C842.162 321.584 843.725 323.367 845.697 324.637C847.628 325.927 849.805 326.632 852.227 326.752C854.649 326.871 857.131 326.293 859.674 325.017C862.176 323.761 864.124 322.116 865.516 320.082C866.868 318.069 867.624 315.892 867.785 313.552C867.905 311.233 867.399 308.945 866.266 306.689Z" fill="white"/>
</svg>
