<svg width="100" height="100" viewBox="0 0 100 100" fill="none" xmlns="http://www.w3.org/2000/svg">
<rect width="100" height="100" rx="30" fill="#471396"/>
<path d="M34.1663 42.3333V64.7917C34.1663 65.8746 34.5965 66.9132 35.3623 67.679C36.1281 68.4448 37.1667 68.875 38.2497 68.875H62.7497C63.8326 68.875 64.8713 68.4448 65.637 67.679C66.4028 66.9132 66.833 65.8746 66.833 64.7917V42.3333M46.4163 50.5H54.583M32.1247 32.125H68.8747C70.0023 32.125 70.9163 33.0391 70.9163 34.1667V40.2917C70.9163 41.4192 70.0023 42.3333 68.8747 42.3333H32.1247C30.9971 42.3333 30.083 41.4192 30.083 40.2917V34.1667C30.083 33.0391 30.9971 32.125 32.1247 32.125Z" stroke="white" stroke-width="4" stroke-linecap="round" stroke-linejoin="round"/>
</svg>
