<svg width="100" height="100" viewBox="0 0 100 100" fill="none" xmlns="http://www.w3.org/2000/svg">
<rect width="100" height="100" rx="30" fill="#B54547"/>
<path d="M53.1872 43.333H47.8122M55.8747 32.583L54.083 36.1663H59.458C60.4084 36.1663 61.3198 36.5439 61.9918 37.2159C62.6638 37.8879 63.0413 38.7993 63.0413 39.7497V64.833C63.0413 65.7834 62.6638 66.6948 61.9918 67.3668C61.3198 68.0388 60.4084 68.4163 59.458 68.4163H41.5413C40.591 68.4163 39.6795 68.0388 39.0075 67.3668C38.3355 66.6948 37.958 65.7834 37.958 64.833V39.7497C37.958 38.7993 38.3355 37.8879 39.0075 37.2159C39.6795 36.5439 40.591 36.1663 41.5413 36.1663H46.9163M59.2771 68.4163C58.865 66.3922 57.766 64.5727 56.1663 63.2658C54.5666 61.959 52.5644 61.2451 50.4988 61.2451C48.4331 61.2451 46.4309 61.959 44.8312 63.2658C43.2315 64.5727 42.1326 66.3922 41.7205 68.4163M45.1247 32.583L50.4997 43.333M55.8747 55.8747C55.8747 58.8432 53.4682 61.2497 50.4997 61.2497C47.5311 61.2497 45.1247 58.8432 45.1247 55.8747C45.1247 52.9061 47.5311 50.4997 50.4997 50.4997C53.4682 50.4997 55.8747 52.9061 55.8747 55.8747Z" stroke="white" stroke-width="4" stroke-linecap="round" stroke-linejoin="round"/>
</svg>
