<svg width="100" height="100" viewBox="0 0 100 100" fill="none" xmlns="http://www.w3.org/2000/svg">
<rect width="100" height="100" rx="30" fill="#FF723A"/>
<path d="M46.417 52.5413H54.5837M50.5003 38.2497V52.5413M58.667 42.333V38.2497H42.3337V42.333M34.167 65.8122V35.1872C34.167 33.8335 34.7048 32.5352 35.662 31.578C36.6192 30.6208 37.9174 30.083 39.2712 30.083H64.792C65.3335 30.083 65.8528 30.2981 66.2357 30.681C66.6186 31.0639 66.8337 31.5832 66.8337 32.1247V68.8747C66.8337 69.4162 66.6186 69.9355 66.2357 70.3183C65.8528 70.7012 65.3335 70.9163 64.792 70.9163H39.2712C37.9174 70.9163 36.6192 70.3786 35.662 69.4214C34.7048 68.4641 34.167 67.1659 34.167 65.8122ZM34.167 65.8122C34.167 64.4585 34.7048 63.1602 35.662 62.203C36.6192 61.2458 37.9174 60.708 39.2712 60.708H66.8337" stroke="white" stroke-width="4" stroke-linecap="round" stroke-linejoin="round"/>
</svg>
