<svg width="100" height="100" viewBox="0 0 100 100" fill="none" xmlns="http://www.w3.org/2000/svg">
<rect width="100" height="100" rx="30" fill="#FF5F57"/>
<path d="M43.3333 32.583V39.7497M57.6667 32.583V39.7497M34.375 46.9163H66.625M43.3333 54.083H43.3513M50.5 54.083H50.5179M57.6667 54.083H57.6846M43.3333 61.2497H43.3513M50.5 61.2497H50.5179M57.6667 61.2497H57.6846M37.9583 36.1663H63.0417C65.0207 36.1663 66.625 37.7707 66.625 39.7497V64.833C66.625 66.812 65.0207 68.4163 63.0417 68.4163H37.9583C35.9793 68.4163 34.375 66.812 34.375 64.833V39.7497C34.375 37.7707 35.9793 36.1663 37.9583 36.1663Z" stroke="white" stroke-width="4" stroke-linecap="round" stroke-linejoin="round"/>
</svg>
