<svg width="100" height="100" viewBox="0 0 100 100" fill="none" xmlns="http://www.w3.org/2000/svg">
<rect width="100" height="100" rx="30" fill="#FB6592"/>
<path d="M50.4997 70.9163V42.333M50.4997 70.9163C45.0848 70.9163 39.8918 68.7653 36.0629 64.9364C32.234 61.1076 30.083 55.9145 30.083 50.4997H36.208M50.4997 70.9163C55.9145 70.9163 61.1076 68.7653 64.9364 64.9364C68.7653 61.1076 70.9163 55.9145 70.9163 50.4997H64.7913M50.4997 42.333C53.8824 42.333 56.6247 39.5908 56.6247 36.208C56.6247 32.8253 53.8824 30.083 50.4997 30.083C47.1169 30.083 44.3747 32.8253 44.3747 36.208C44.3747 39.5908 47.1169 42.333 50.4997 42.333Z" stroke="white" stroke-width="4" stroke-linecap="round" stroke-linejoin="round"/>
</svg>
