<svg width="100" height="100" viewBox="0 0 100 100" fill="none" xmlns="http://www.w3.org/2000/svg">
<rect width="100" height="100" rx="30" fill="#FEBC2E"/>
<path d="M54.5837 30.083V38.2497C54.5837 39.3326 55.0139 40.3713 55.7796 41.137C56.5454 41.9028 57.584 42.333 58.667 42.333H66.8337M42.3337 62.7497L50.5003 54.583M42.3337 62.7497V46.4163M42.3337 62.7497H58.667M56.6253 30.083H38.2503C37.1674 30.083 36.1287 30.5132 35.363 31.279C34.5972 32.0448 34.167 33.0834 34.167 34.1663V66.833C34.167 67.916 34.5972 68.9546 35.363 69.7204C36.1287 70.4861 37.1674 70.9163 38.2503 70.9163H62.7503C63.8333 70.9163 64.8719 70.4861 65.6377 69.7204C66.4035 68.9546 66.8337 67.916 66.8337 66.833V40.2913L56.6253 30.083Z" stroke="white" stroke-width="4" stroke-linecap="round" stroke-linejoin="round"/>
</svg>
