<svg width="100" height="100" viewBox="0 0 100 100" fill="none" xmlns="http://www.w3.org/2000/svg">
<rect width="100" height="100" rx="30" fill="#1877F2"/>
<path d="M44.375 32.125H34.1667C33.0391 32.125 32.125 33.0391 32.125 34.1667V66.8333C32.125 67.9609 33.0391 68.875 34.1667 68.875H44.375C45.5026 68.875 46.4167 67.9609 46.4167 66.8333V34.1667C46.4167 33.0391 45.5026 32.125 44.375 32.125Z" stroke="white" stroke-width="4" stroke-linecap="round" stroke-linejoin="round"/>
<path d="M66.8333 32.125H56.625C55.4974 32.125 54.5833 33.0391 54.5833 34.1667V44.375C54.5833 45.5026 55.4974 46.4167 56.625 46.4167H66.8333C67.9609 46.4167 68.875 45.5026 68.875 44.375V34.1667C68.875 33.0391 67.9609 32.125 66.8333 32.125Z" stroke="white" stroke-width="4" stroke-linecap="round" stroke-linejoin="round"/>
<path d="M66.8333 54.5833H56.625C55.4974 54.5833 54.5833 55.4974 54.5833 56.625V66.8333C54.5833 67.9609 55.4974 68.875 56.625 68.875H66.8333C67.9609 68.875 68.875 67.9609 68.875 66.8333V56.625C68.875 55.4974 67.9609 54.5833 66.8333 54.5833Z" stroke="white" stroke-width="4" stroke-linecap="round" stroke-linejoin="round"/>
</svg>
