<svg width="100" height="100" viewBox="0 0 100 100" fill="none" xmlns="http://www.w3.org/2000/svg">
<rect width="100" height="100" rx="30" fill="#E03B37"/>
<path d="M40.2917 48.458V40.2913C40.2917 37.5839 41.3672 34.9874 43.2816 33.073C45.1961 31.1585 47.7926 30.083 50.5 30.083C53.2074 30.083 55.8039 31.1585 57.7184 33.073C59.6328 34.9874 60.7083 37.5839 60.7083 40.2913V48.458M36.2083 48.458H64.7917C67.0468 48.458 68.875 50.2862 68.875 52.5413V66.833C68.875 69.0882 67.0468 70.9163 64.7917 70.9163H36.2083C33.9532 70.9163 32.125 69.0882 32.125 66.833V52.5413C32.125 50.2862 33.9532 48.458 36.2083 48.458Z" stroke="white" stroke-width="4" stroke-linecap="round" stroke-linejoin="round"/>
</svg>
