<svg width="100" height="100" viewBox="0 0 100 100" fill="none" xmlns="http://www.w3.org/2000/svg">
<rect width="100" height="100" rx="30" fill="#367CFF"/>
<path d="M30.083 49.4792V36.2083C30.083 35.1254 30.5132 34.0868 31.279 33.321C32.0448 32.5552 33.0834 32.125 34.1663 32.125H42.1288C43.558 32.125 44.783 32.7375 45.5997 33.9625L47.233 36.4125C48.0497 37.6375 49.2747 38.25 50.7038 38.25H66.833C67.916 38.25 68.9546 38.6802 69.7204 39.446C70.4861 40.2118 70.9163 41.2504 70.9163 42.3333V62.75C70.9163 63.833 70.4861 64.8716 69.7204 65.6373C68.9546 66.4031 67.916 66.8333 66.833 66.8333H47.4372M49.2298 53.8197C49.6325 53.417 49.9519 52.939 50.1699 52.4128C50.3878 51.8866 50.5 51.3227 50.5 50.7532C50.5 50.1836 50.3878 49.6197 50.1699 49.0935C49.9519 48.5674 49.6325 48.0893 49.2298 47.6866C48.827 47.2839 48.349 46.9644 47.8228 46.7465C47.2966 46.5285 46.7327 46.4164 46.1632 46.4164C45.5937 46.4164 45.0297 46.5285 44.5036 46.7465C43.9774 46.9644 43.4993 47.2839 43.0966 47.6866L32.8678 57.9194C32.3824 58.4046 32.0271 59.0042 31.8348 59.663L30.1259 65.5226C30.0746 65.6983 30.0716 65.8845 30.117 66.0618C30.1624 66.239 30.2546 66.4008 30.384 66.5303C30.5134 66.6597 30.6753 66.7519 30.8525 66.7973C31.0298 66.8427 31.216 66.8397 31.3917 66.7884L37.2513 65.0795C37.9101 64.8872 38.5097 64.5319 38.9949 64.0465L49.2298 53.8197Z" stroke="white" stroke-width="4" stroke-linecap="round" stroke-linejoin="round"/>
</svg>
