<svg width="100" height="100" viewBox="0 0 100 100" fill="none" xmlns="http://www.w3.org/2000/svg">
<rect width="100" height="100" rx="30" fill="#BF2CD3"/>
<path d="M35.1663 67.4163H60.2497C61.2 67.4163 62.1115 67.0388 62.7835 66.3668C63.4555 65.6948 63.833 64.7834 63.833 63.833V40.5413L54.8747 31.583H38.7497C37.7993 31.583 36.8879 31.9605 36.2159 32.6325C35.5439 33.3045 35.1663 34.216 35.1663 35.1663V42.333M53.083 31.583V38.7497C53.083 39.7 53.4605 40.6115 54.1325 41.2835C54.8045 41.9555 55.716 42.333 56.6663 42.333H63.833M45.9163 49.4997H49.4997V60.2497M45.9163 60.2497H53.083M35.1663 49.4997C37.1454 49.4997 38.7497 51.104 38.7497 53.083V56.6663C38.7497 58.6454 37.1454 60.2497 35.1663 60.2497C33.1873 60.2497 31.583 58.6454 31.583 56.6663V53.083C31.583 51.104 33.1873 49.4997 35.1663 49.4997Z" stroke="white" stroke-width="4" stroke-linecap="round" stroke-linejoin="round"/>
</svg>
