<svg width="100" height="100" viewBox="0 0 100 100" fill="none" xmlns="http://www.w3.org/2000/svg">
<rect width="100" height="100" rx="30" fill="#FF41EC"/>
<path d="M58.6667 46.4163C58.6667 48.5823 57.8063 50.6595 56.2747 52.191C54.7432 53.7226 52.6659 54.583 50.5 54.583C48.3341 54.583 46.2568 53.7226 44.7253 52.191C43.1937 50.6595 42.3333 48.5823 42.3333 46.4163M32.3353 38.3191H68.6647M32.9417 37.1615C32.4116 37.8683 32.125 38.728 32.125 39.6115V66.833C32.125 67.916 32.5552 68.9546 33.321 69.7204C34.0868 70.4861 35.1254 70.9163 36.2083 70.9163H64.7917C65.8746 70.9163 66.9132 70.4861 67.679 69.7204C68.4448 68.9546 68.875 67.916 68.875 66.833V39.6115C68.875 38.728 68.5884 37.8683 68.0583 37.1615L63.975 31.7163C63.5947 31.2092 63.1014 30.7976 62.5345 30.5141C61.9675 30.2306 61.3423 30.083 60.7083 30.083H40.2917C39.6577 30.083 39.0325 30.2306 38.4655 30.5141C37.8986 30.7976 37.4054 31.2092 37.025 31.7163L32.9417 37.1615Z" stroke="white" stroke-width="4" stroke-linecap="round" stroke-linejoin="round"/>
</svg>
