<svg width="100" height="100" viewBox="0 0 100 100" fill="none" xmlns="http://www.w3.org/2000/svg">
<rect width="100" height="100" rx="30" fill="#049B65"/>
<path d="M35.167 62.9372V36.0622C35.167 34.8742 35.6389 33.7349 36.4789 32.8949C37.3189 32.0549 38.4582 31.583 39.6462 31.583H62.042C62.5172 31.583 62.9729 31.7718 63.3089 32.1078C63.6449 32.4438 63.8337 32.8995 63.8337 33.3747V65.6247C63.8337 66.0999 63.6449 66.5556 63.3089 66.8916C62.9729 67.2276 62.5172 67.4163 62.042 67.4163H39.6462C38.4582 67.4163 37.3189 66.9444 36.4789 66.1044C35.6389 65.2644 35.167 64.1251 35.167 62.9372ZM35.167 62.9372C35.167 61.7492 35.6389 60.6099 36.4789 59.7699C37.3189 58.9299 38.4582 58.458 39.6462 58.458H63.8337M42.3337 51.2913L49.5003 38.7497L56.667 51.2913M44.3045 47.708H54.517" stroke="white" stroke-width="4" stroke-linecap="round" stroke-linejoin="round"/>
</svg>
