<svg width="100" height="100" viewBox="0 0 100 100" fill="none" xmlns="http://www.w3.org/2000/svg">
<rect width="100" height="100" rx="30" fill="#FF723A"/>
<path d="M47.0292 56.625H40.2917C38.1257 56.625 36.0485 57.4854 34.517 59.017C32.9854 60.5485 32.125 62.6257 32.125 64.7917V68.875M56.625 57.6458V54.5833C56.625 53.5004 57.0552 52.4618 57.821 51.696C58.5868 50.9302 59.6254 50.5 60.7083 50.5C61.7913 50.5 62.8299 50.9302 63.5957 51.696C64.3615 52.4618 64.7917 53.5004 64.7917 54.5833V57.6458M54.5833 40.2917C54.5833 44.802 50.927 48.4583 46.4167 48.4583C41.9063 48.4583 38.25 44.802 38.25 40.2917C38.25 35.7813 41.9063 32.125 46.4167 32.125C50.927 32.125 54.5833 35.7813 54.5833 40.2917ZM54.3771 58.6667H67.0395C68.0532 58.6667 68.875 59.4884 68.875 60.5021V67.0395C68.875 68.0532 68.0532 68.875 67.0395 68.875H54.3771C53.3634 68.875 52.5417 68.0532 52.5417 67.0395V60.5021C52.5417 59.4884 53.3634 58.6667 54.3771 58.6667Z" stroke="white" stroke-width="4" stroke-linecap="round" stroke-linejoin="round"/>
</svg>
