<svg width="100" height="100" viewBox="0 0 100 100" fill="none" xmlns="http://www.w3.org/2000/svg">
<rect width="100" height="100" rx="30" fill="#FEBC2E"/>
<path d="M36.5 43V60.875C36.5 61.737 36.8424 62.5636 37.4519 63.1731C38.0614 63.7826 38.888 64.125 39.75 64.125H43M62.5 43V60.875C62.5 61.737 62.1576 62.5636 61.5481 63.1731C60.9386 63.7826 60.112 64.125 59.25 64.125H56M44.625 54.375L49.5 49.5M49.5 49.5L54.375 54.375M49.5 49.5V64.125M34.875 34.875H64.125C65.0225 34.875 65.75 35.6025 65.75 36.5V41.375C65.75 42.2725 65.0225 43 64.125 43H34.875C33.9775 43 33.25 42.2725 33.25 41.375V36.5C33.25 35.6025 33.9775 34.875 34.875 34.875Z" stroke="white" stroke-width="3" stroke-linecap="round" stroke-linejoin="round"/>
</svg>
