<svg width="100" height="100" viewBox="0 0 100 100" fill="none" xmlns="http://www.w3.org/2000/svg">
<rect width="100" height="100" rx="30" fill="#01D1D1"/>
<path d="M68.875 58.6667H62.75C61.667 58.6667 60.6284 59.0969 59.8626 59.8626C59.0969 60.6284 58.6667 61.667 58.6667 62.75V68.875M68.875 68.875V68.8954M50.5 40.2917V46.4167C50.5 47.4996 50.0698 48.5382 49.304 49.304C48.5382 50.0698 47.4996 50.5 46.4167 50.5H40.2917M32.125 50.5H32.1454M50.5 32.125H50.5204M50.5 58.6667V58.6871M58.6667 50.5H60.7083M68.875 50.5V50.5204M50.5 68.875V66.8333M34.1667 32.125H40.2917C41.4192 32.125 42.3333 33.0391 42.3333 34.1667V40.2917C42.3333 41.4192 41.4192 42.3333 40.2917 42.3333H34.1667C33.0391 42.3333 32.125 41.4192 32.125 40.2917V34.1667C32.125 33.0391 33.0391 32.125 34.1667 32.125ZM60.7083 32.125H66.8333C67.9609 32.125 68.875 33.0391 68.875 34.1667V40.2917C68.875 41.4192 67.9609 42.3333 66.8333 42.3333H60.7083C59.5808 42.3333 58.6667 41.4192 58.6667 40.2917V34.1667C58.6667 33.0391 59.5808 32.125 60.7083 32.125ZM34.1667 58.6667H40.2917C41.4192 58.6667 42.3333 59.5807 42.3333 60.7083V66.8333C42.3333 67.9609 41.4192 68.875 40.2917 68.875H34.1667C33.0391 68.875 32.125 67.9609 32.125 66.8333V60.7083C32.125 59.5807 33.0391 58.6667 34.1667 58.6667Z" stroke="white" stroke-width="4" stroke-linecap="round" stroke-linejoin="round"/>
</svg>
