<svg width="100" height="100" viewBox="0 0 100 100" fill="none" xmlns="http://www.w3.org/2000/svg">
<rect width="100" height="100" rx="30" fill="#B54547"/>
<path d="M30.083 68.875C30.0832 66.3045 30.6902 63.7703 31.8545 61.4786C33.0188 59.1868 34.7075 57.2022 36.7834 55.6862C38.8593 54.1702 41.2637 53.1655 43.801 52.7539C46.3384 52.3423 48.9371 52.5354 51.3858 53.3175M70.9163 70.9167L67.0372 67.0375M56.6247 42.3333C56.6247 47.9712 52.0542 52.5417 46.4163 52.5417C40.7784 52.5417 36.208 47.9712 36.208 42.3333C36.208 36.6954 40.7784 32.125 46.4163 32.125C52.0542 32.125 56.6247 36.6954 56.6247 42.3333ZM68.8747 62.75C68.8747 66.1327 66.1324 68.875 62.7497 68.875C59.3669 68.875 56.6247 66.1327 56.6247 62.75C56.6247 59.3673 59.3669 56.625 62.7497 56.625C66.1324 56.625 68.8747 59.3673 68.8747 62.75Z" stroke="white" stroke-width="4" stroke-linecap="round" stroke-linejoin="round"/>
</svg>
