<svg width="100" height="100" viewBox="0 0 100 100" fill="none" xmlns="http://www.w3.org/2000/svg">
<rect width="100" height="100" rx="30" fill="#7241C1"/>
<path d="M46.4167 56.625L40.2917 50.5M40.2917 50.5L46.4167 44.375M40.2917 50.5H56.625C57.708 50.5 58.7466 50.9302 59.5124 51.696C60.2781 52.4618 60.7084 53.5004 60.7084 54.5834V56.625M32.1087 59.3649C32.4089 60.1222 32.4757 60.952 32.3006 61.7476L30.1262 68.4647C30.0562 68.8053 30.0743 69.1582 30.1789 69.4899C30.2834 69.8215 30.471 70.121 30.7238 70.3599C30.9765 70.5987 31.2861 70.7691 31.6232 70.8547C31.9602 70.9404 32.3136 70.9385 32.6497 70.8493L39.6179 68.8117C40.3687 68.6628 41.1462 68.7279 41.8617 68.9996C46.2215 71.0356 51.1602 71.4663 55.8066 70.2158C60.453 68.9653 64.5084 66.114 67.2574 62.1648C70.0064 58.2157 71.2722 53.4225 70.8315 48.631C70.3909 43.8395 68.2721 39.3576 64.849 35.976C61.4259 32.5945 56.9184 30.5306 52.1219 30.1485C47.3254 29.7664 42.548 31.0907 38.6327 33.8877C34.7174 36.6847 31.9158 40.7746 30.7222 45.436C29.5285 50.0973 30.0196 55.0304 32.1087 59.3649Z" stroke="white" stroke-width="4" stroke-linecap="round" stroke-linejoin="round"/>
</svg>
