<svg width="100" height="100" viewBox="0 0 100 100" fill="none" xmlns="http://www.w3.org/2000/svg">
<rect width="100" height="100" rx="30" fill="#A2A0D9"/>
<path d="M32.125 40.2917V36.2083C32.125 35.1254 32.5552 34.0868 33.321 33.321C34.0868 32.5552 35.1254 32.125 36.2083 32.125H40.2917M60.7083 32.125H64.7917C65.8746 32.125 66.9132 32.5552 67.679 33.321C68.4448 34.0868 68.875 35.1254 68.875 36.2083V40.2917M68.875 60.7083V64.7917C68.875 65.8746 68.4448 66.9132 67.679 67.679C66.9132 68.4448 65.8746 68.875 64.7917 68.875H60.7083M40.2917 68.875H36.2083C35.1254 68.875 34.0868 68.4448 33.321 67.679C32.5552 66.9132 32.125 65.8746 32.125 64.7917V60.7083M40.2917 42.3333H56.625M40.2917 50.5H60.7083M40.2917 58.6667H52.5417" stroke="white" stroke-width="4" stroke-linecap="round" stroke-linejoin="round"/>
</svg>
